<svg width="500" height="500" viewBox="0 0 500 500" fill="none" xmlns="http://www.w3.org/2000/svg">
<g clip-path="url(#clip0_4_22)">
<path d="M407.08 111.4H359.87V119.09H407.08V111.4Z" fill="white"/>
<path d="M203.65 161.39V76.01H231.35V88.31H216.86V111.65H226.48V123.31H216.86V148.69H231.35V161.39H203.65Z" fill="white"/>
<path d="M313.43 161.39L298.93 118.19L294.83 104.46V161.38H286.13V76.01H294.46L307.66 119.84L311.51 133.7V76.01H320.24V161.39H313.43Z" fill="white"/>
<path d="M210.19 289.13V203.76H223.39V289.13H210.19Z" fill="white"/>
<path d="M139.57 413.1L138.16 408.61C136.36 412.45 132.65 414.38 128.8 414.38C119.82 414.38 114.06 407.83 114.06 397.58V343.23C114.06 334.01 121.12 326.44 130.6 326.44C140.09 326.44 146.62 334.01 146.62 343.23V359.01H134.33V342.72C134.33 340.67 133.17 339.26 130.87 339.26C128.68 339.26 127.27 340.67 127.27 342.72V398.73C127.27 400.92 128.68 402.46 130.87 402.46C133.17 402.46 134.45 400.92 134.45 398.73V381.31H131.12V371.05H147.27V413.1H139.57Z" fill="white"/>
<path d="M222.54 413.1L212.94 374.52L209.99 362.86V413.11H198.7V327.74H211.26L219.73 366.06L222.29 377.99V327.74H233.46V413.11L222.54 413.1Z" fill="white"/>
<path d="M307.92 212.42V289.07H298.83V212.42H287.42V203.7H318.95V212.42H307.92Z" fill="white"/>
<path d="M387.78 255.37V289.08H378.55V255.37L365.36 203.71H374.59L383.69 243.45L392.79 203.71H401.63L387.78 255.37Z" fill="white"/>
<path d="M326.78 363.6H279.57V373.64H326.78V363.6Z" fill="white"/>
<path d="M308.19 345.02H298.16V392.22H308.19V345.02Z" fill="white"/>
<path d="M124.7 161.51H114.8V76.02H124.7C147.96 76.14 149.71 85.32 149.71 118.82C149.71 152.19 147.96 161.39 124.7 161.51ZM127.38 148.94C136.22 148.94 136.79 146.73 136.69 118.7C136.8 90.78 136.22 88.58 127.38 88.58V148.94Z" fill="white"/>
<path d="M135.8 241.84C130.41 232.35 127.47 228.88 127.47 219.02C127.47 216.06 129.25 214.66 131.44 214.66C133.49 214.66 135.03 216.2 135.03 219.02V225.5L146.44 224.43V220.3C146.44 209.02 140.42 202.48 131.44 202.48C119.9 202.48 114.4 211.08 114.4 221.71C114.4 231.58 121.19 243.38 126.18 251.32C131.18 259.91 134.25 265.93 134.25 273.62C134.25 276.82 132.84 278.75 130.02 278.75C127.07 278.75 125.66 276.7 125.66 273.62V266.72L114.12 267.82V272.6C114.12 284.01 120.4 290.42 130.66 290.42C138.99 290.42 147.06 284.9 147.06 271.57C147.07 261.57 141.44 251.44 135.8 241.84Z" fill="white"/>
</g>
<defs>
<clipPath id="clip0_4_22">
<rect width="500" height="500" fill="white"/>
</clipPath>
</defs>
</svg>
