<svg width="181" height="100" viewBox="0 0 181 100" fill="none" xmlns="http://www.w3.org/2000/svg">
<path d="M75.39 33.95L67.55 41.79H16.65V26.35H67.79L75.39 33.95Z" fill="#AED35E"/>
<path d="M16.67 16.17C16.67 16.06 16.76 15.97 16.87 15.97H19.38C20.69 15.97 21.77 17.04 21.77 18.33C21.77 19.62 20.69 20.73 19.39 20.73H18.06V23.24C18.06 23.35 17.96 23.44 17.86 23.44H16.88C16.76 23.44 16.68 23.34 16.68 23.24V16.17H16.67ZM19.29 19.42C19.89 19.42 20.39 18.94 20.39 18.31C20.39 17.72 19.89 17.27 19.29 17.27H18.05V19.42H19.29Z" fill="white"/>
<path d="M26.29 15.86C28.43 15.86 30.13 17.58 30.13 19.71C30.13 21.84 28.42 23.54 26.29 23.54C24.16 23.54 22.46 21.84 22.46 19.71C22.46 17.58 24.16 15.86 26.29 15.86ZM26.29 22.16C27.63 22.16 28.75 21.06 28.75 19.72C28.75 18.38 27.64 17.25 26.29 17.25C24.94 17.25 23.85 18.37 23.85 19.72C23.85 21.07 24.95 22.16 26.29 22.16Z" fill="white"/>
<path d="M31.53 16.17C31.53 16.06 31.62 15.97 31.73 15.97H32.71C32.82 15.97 32.91 16.07 32.91 16.17V22.16H35.63C35.75 22.16 35.83 22.26 35.83 22.36V23.24C35.83 23.35 35.74 23.44 35.63 23.44H31.72C31.6 23.44 31.52 23.34 31.52 23.24V16.17H31.53Z" fill="white"/>
<path d="M36.93 16.17C36.93 16.06 37.03 15.97 37.13 15.97H38.12C38.23 15.97 38.32 16.07 38.32 16.17V23.24C38.32 23.35 38.22 23.44 38.12 23.44H37.13C37.02 23.44 36.93 23.34 36.93 23.24V16.17Z" fill="white"/>
<path d="M41.27 17.24H39.64C39.52 17.24 39.44 17.14 39.44 17.04V16.17C39.44 16.06 39.53 15.97 39.64 15.97H44.31C44.43 15.97 44.51 16.07 44.51 16.17V17.04C44.51 17.15 44.42 17.24 44.31 17.24H42.68V23.23C42.68 23.34 42.58 23.43 42.48 23.43H41.49C41.38 23.43 41.29 23.33 41.29 23.23V17.24H41.27Z" fill="white"/>
<path d="M45.62 16.17C45.62 16.06 45.71 15.97 45.82 15.97H50.17C50.29 15.97 50.37 16.07 50.37 16.17V17.04C50.37 17.15 50.28 17.24 50.17 17.24H47.01V18.99H49.65C49.76 18.99 49.85 19.09 49.85 19.19V20.08C49.85 20.2 49.75 20.28 49.65 20.28H47.01V22.15H50.17C50.29 22.15 50.37 22.25 50.37 22.35V23.23C50.37 23.34 50.28 23.43 50.17 23.43H45.82C45.7 23.43 45.62 23.33 45.62 23.23V16.16V16.17Z" fill="white"/>
<path d="M55.19 15.86C56.27 15.86 57.05 16.2 57.77 16.85C57.87 16.93 57.87 17.06 57.78 17.15L57.13 17.82C57.06 17.9 56.95 17.9 56.86 17.82C56.41 17.42 55.81 17.19 55.22 17.19C53.85 17.19 52.84 18.33 52.84 19.68C52.84 21.03 53.86 22.15 55.23 22.15C55.87 22.15 56.42 21.9 56.86 21.54C56.95 21.47 57.06 21.48 57.13 21.54L57.79 22.22C57.88 22.29 57.85 22.43 57.78 22.51C57.05 23.21 56.14 23.55 55.19 23.55C53.05 23.55 51.34 21.85 51.34 19.72C51.34 17.59 53.06 15.87 55.19 15.87V15.86Z" fill="white"/>
<path d="M59.19 16.05C59.19 15.94 59.29 15.86 59.39 15.86H59.66L64.1 20.58H64.11V16.17C64.11 16.06 64.19 15.97 64.31 15.97H65.29C65.4 15.97 65.49 16.07 65.49 16.17V23.35C65.49 23.46 65.39 23.54 65.29 23.54H65.03L60.57 18.64H60.56V23.23C60.56 23.34 60.47 23.43 60.36 23.43H59.39C59.28 23.43 59.19 23.33 59.19 23.23V16.05Z" fill="white"/>
<path d="M67.44 16.17C67.44 16.06 67.54 15.97 67.64 15.97H68.63C68.74 15.97 68.83 16.07 68.83 16.17V23.24C68.83 23.35 68.73 23.44 68.63 23.44H67.64C67.53 23.44 67.44 23.34 67.44 23.24V16.17Z" fill="white"/>
<path d="M74.1 15.86C75.18 15.86 75.96 16.2 76.68 16.85C76.78 16.93 76.78 17.06 76.69 17.15L76.04 17.82C75.96 17.9 75.86 17.9 75.77 17.82C75.32 17.42 74.72 17.19 74.13 17.19C72.76 17.19 71.75 18.33 71.75 19.68C71.75 21.03 72.77 22.15 74.14 22.15C74.78 22.15 75.33 21.9 75.77 21.54C75.85 21.47 75.97 21.48 76.04 21.54L76.7 22.22C76.79 22.29 76.76 22.43 76.69 22.51C75.96 23.21 75.05 23.55 74.1 23.55C71.97 23.55 70.25 21.85 70.25 19.72C70.25 17.59 71.97 15.87 74.1 15.87V15.86Z" fill="white"/>
<path d="M81.37 15.86C83.51 15.86 85.21 17.58 85.21 19.71C85.21 21.84 83.5 23.54 81.37 23.54C79.24 23.54 77.54 21.84 77.54 19.71C77.54 17.58 79.24 15.86 81.37 15.86ZM81.37 22.16C82.72 22.16 83.83 21.06 83.83 19.72C83.83 18.38 82.72 17.25 81.37 17.25C80.02 17.25 78.93 18.37 78.93 19.72C78.93 21.07 80.03 22.16 81.37 22.16Z" fill="white"/>
<path d="M92.44 16.02C92.45 15.93 92.51 15.86 92.63 15.86H92.8C92.89 15.86 92.95 15.9 92.98 15.97L95.33 21.01H95.36L97.71 15.97C97.74 15.91 97.79 15.86 97.89 15.86H98.06C98.18 15.86 98.24 15.93 98.25 16.02L99.51 23.19C99.54 23.34 99.46 23.44 99.32 23.44H98.35C98.25 23.44 98.17 23.36 98.15 23.28L97.52 19.23H97.49L95.62 23.43C95.6 23.49 95.53 23.55 95.44 23.55H95.25C95.15 23.55 95.1 23.5 95.07 23.43L93.18 19.23H93.15L92.53 23.28C92.52 23.36 92.43 23.44 92.34 23.44H91.38C91.24 23.44 91.16 23.34 91.18 23.19L92.45 16.02H92.44Z" fill="white"/>
<path d="M100.98 16.17C100.98 16.06 101.08 15.97 101.18 15.97H102.17C102.28 15.97 102.37 16.07 102.37 16.17V23.24C102.37 23.35 102.27 23.44 102.17 23.44H101.18C101.07 23.44 100.98 23.34 100.98 23.24V16.17Z" fill="white"/>
<path d="M104.33 16.17C104.33 16.06 104.42 15.97 104.53 15.97H105.51C105.62 15.97 105.71 16.07 105.71 16.17V22.16H108.43C108.55 22.16 108.63 22.26 108.63 22.36V23.24C108.63 23.35 108.54 23.44 108.43 23.44H104.52C104.4 23.44 104.32 23.34 104.32 23.24V16.17H104.33Z" fill="white"/>
<path d="M109.09 23.16L112.41 15.98C112.44 15.92 112.5 15.86 112.59 15.86H112.7C112.81 15.86 112.85 15.91 112.88 15.98L116.17 23.16C116.23 23.3 116.15 23.44 115.99 23.44H115.06C114.9 23.44 114.83 23.38 114.75 23.23L114.23 22.08H111.04L110.52 23.23C110.48 23.34 110.38 23.44 110.21 23.44H109.28C109.12 23.44 109.03 23.3 109.1 23.16H109.09ZM113.7 20.88L112.63 18.53H112.6L111.55 20.88H113.7Z" fill="white"/>
<path d="M117.14 16.05C117.14 15.94 117.24 15.86 117.34 15.86H117.61L122.05 20.58H122.06V16.17C122.06 16.06 122.14 15.97 122.26 15.97H123.24C123.35 15.97 123.44 16.07 123.44 16.17V23.35C123.44 23.46 123.34 23.54 123.24 23.54H122.98L118.52 18.64H118.51V23.23C118.51 23.34 118.43 23.43 118.31 23.43H117.34C117.23 23.43 117.14 23.33 117.14 23.23V16.05Z" fill="white"/>
<path d="M128.7 15.86C130.84 15.86 132.54 17.58 132.54 19.71C132.54 21.84 130.83 23.54 128.7 23.54C126.57 23.54 124.87 21.84 124.87 19.71C124.87 17.58 126.57 15.86 128.7 15.86ZM128.7 22.16C130.05 22.16 131.16 21.06 131.16 19.72C131.16 18.38 130.05 17.25 128.7 17.25C127.35 17.25 126.26 18.37 126.26 19.72C126.26 21.07 127.36 22.16 128.7 22.16Z" fill="white"/>
<path d="M139.52 18.12L138.58 18.32C138.48 18.34 138.38 18.28 138.37 18.18L138.31 17.66C138.3 17.57 138.32 17.51 138.36 17.47L139.9 16.18H140.65C140.76 16.18 140.84 16.28 140.84 16.38V23.23C140.84 23.34 140.76 23.43 140.65 23.43H139.73C139.61 23.43 139.53 23.33 139.53 23.23V18.12H139.52Z" fill="white"/>
<path d="M143.62 19.71V19.68C143.18 19.45 142.52 18.86 142.52 18.03C142.52 16.84 143.54 16.08 144.84 16.08C146.14 16.08 147.2 16.85 147.2 18.03C147.2 18.84 146.54 19.42 146.1 19.67V19.71C146.58 19.96 147.39 20.57 147.39 21.49C147.39 22.65 146.41 23.54 144.84 23.54C143.27 23.54 142.33 22.65 142.33 21.49C142.33 20.56 143.32 19.86 143.62 19.71ZM144.86 22.45C145.45 22.45 145.97 22.05 145.97 21.47C145.97 20.99 145.57 20.5 144.86 20.34C144.15 20.5 143.75 20.99 143.75 21.47C143.75 22.06 144.28 22.45 144.86 22.45ZM145.83 18.08C145.83 17.57 145.39 17.17 144.84 17.17C144.33 17.17 143.89 17.57 143.89 18.08C143.89 18.56 144.19 18.93 144.86 19.09C145.52 18.94 145.83 18.53 145.83 18.08Z" fill="white"/>
<path d="M151.9 15.94C152.05 15.9 152.16 15.95 152.2 16.09L152.45 16.72C152.5 16.85 152.46 16.97 152.26 17.03C151.76 17.19 150.24 17.9 149.91 19.08C150.09 18.97 150.63 18.78 151.13 18.78C152.2 18.78 153.31 19.57 153.31 21.1C153.31 22.45 152.21 23.54 150.9 23.54C149.22 23.54 148.36 22.2 148.36 20.59C148.36 17.47 151 16.23 151.91 15.94H151.9ZM152.09 21.08C152.09 20.4 151.54 19.83 150.86 19.83C150.18 19.83 149.74 20.37 149.62 20.76C149.62 21.49 150 22.33 150.87 22.33C151.54 22.33 152.09 21.75 152.09 21.08Z" fill="white"/>
<path d="M154.04 22.33L154.58 21.81C154.68 21.72 154.77 21.72 154.86 21.81C154.89 21.85 155.52 22.39 156.17 22.39C156.75 22.39 157.3 21.97 157.3 21.39C157.3 20.83 156.79 20.33 155.83 20.33H155.23C155.11 20.33 155.03 20.24 155.03 20.12V19.45C155.03 19.31 155.11 19.24 155.23 19.24H155.83C156.71 19.24 157.15 18.8 157.15 18.26C157.15 17.67 156.66 17.28 156.11 17.28C155.56 17.28 155.21 17.58 155.03 17.79C154.95 17.87 154.84 17.89 154.74 17.8L154.22 17.31C154.14 17.24 154.15 17.11 154.22 17.03C154.22 17.03 155.03 16.09 156.23 16.09C157.43 16.09 158.5 16.85 158.5 18.04C158.5 18.86 157.88 19.48 157.4 19.71V19.74C157.9 19.95 158.69 20.53 158.69 21.48C158.69 22.69 157.71 23.56 156.23 23.56C154.89 23.56 154.24 22.89 154.01 22.61C153.95 22.54 153.96 22.42 154.02 22.34L154.04 22.33Z" fill="white"/>
<path d="M80.96 69.49H82.31V82.39H80.96V69.49Z" fill="white"/>
<path d="M91.52 80.72C91.56 81.24 91.99 81.44 92.56 81.51L92.51 82.57C91.56 82.57 90.91 82.39 90.37 81.85C90.37 81.85 88.75 82.57 87.14 82.57C85.53 82.57 84.61 81.64 84.61 79.82C84.61 78 85.51 77.34 87.36 77.16L90.18 76.89V76.12C90.18 74.86 89.64 74.41 88.56 74.41C87.3 74.41 85.16 74.64 85.16 74.64L85.11 73.62C85.11 73.62 87.09 73.22 88.63 73.22C90.66 73.22 91.52 74.15 91.52 76.11V80.71V80.72ZM87.52 78.17C86.42 78.28 85.99 78.8 85.99 79.79C85.99 80.83 86.44 81.44 87.36 81.44C88.69 81.44 90.18 80.88 90.18 80.88V77.91L87.52 78.16V78.17Z" fill="white"/>
<path d="M101.97 77.75C101.97 81.33 101 82.57 97.73 82.57C96.65 82.57 94.73 82.37 94.73 82.37V69.49H96.06V73.86C96.06 73.86 97.43 73.23 98.7 73.23C101.14 73.23 101.97 74.52 101.97 77.76V77.75ZM100.6 77.75C100.6 75.43 100.13 74.43 98.55 74.43C97.31 74.43 96.05 74.95 96.05 74.95V81.28C96.05 81.28 97.22 81.37 97.7 81.37C100.16 81.37 100.59 80.27 100.59 77.76L100.6 77.75Z" fill="white"/>
<path d="M111.65 77.79C111.65 81.06 110.84 82.57 107.8 82.57C104.76 82.57 103.95 81.06 103.95 77.79C103.95 74.7 104.96 73.23 107.8 73.23C110.64 73.23 111.65 74.7 111.65 77.79ZM110.27 77.79C110.27 75.29 109.73 74.39 107.81 74.39C105.89 74.39 105.35 75.29 105.35 77.79C105.35 80.29 105.69 81.4 107.81 81.4C109.93 81.4 110.27 80.34 110.27 77.79Z" fill="white"/>
<path d="M114.01 73.41H115.34V74.63C115.34 74.63 116.9 73.55 118.63 73.21V74.58C116.94 74.92 115.36 75.8 115.36 75.8V82.4H114.01V73.41Z" fill="white"/>
<path d="M126.73 80.72C126.77 81.24 127.2 81.44 127.77 81.51L127.72 82.57C126.77 82.57 126.12 82.39 125.58 81.85C125.58 81.85 123.96 82.57 122.35 82.57C120.74 82.57 119.82 81.64 119.82 79.82C119.82 78 120.72 77.34 122.57 77.16L125.39 76.89V76.12C125.39 74.86 124.85 74.41 123.77 74.41C122.51 74.41 120.37 74.64 120.37 74.64L120.32 73.62C120.32 73.62 122.3 73.22 123.84 73.22C125.87 73.22 126.73 74.15 126.73 76.11V80.71V80.72ZM122.72 78.17C121.62 78.28 121.19 78.8 121.19 79.79C121.19 80.83 121.64 81.44 122.56 81.44C123.89 81.44 125.38 80.88 125.38 80.88V77.91L122.72 78.16V78.17Z" fill="white"/>
<path d="M131.4 74.57V78.87C131.4 80.83 131.53 81.39 132.69 81.39C133.19 81.39 134.29 81.28 134.29 81.28L134.38 82.39C134.38 82.39 133.18 82.59 132.55 82.59C130.7 82.59 130.07 81.89 130.07 79.3V74.57H128.79V73.4H130.07V70.65H131.4V73.4H134.26V74.57H131.4Z" fill="white"/>
<path d="M143.03 77.79C143.03 81.06 142.22 82.57 139.18 82.57C136.14 82.57 135.33 81.06 135.33 77.79C135.33 74.7 136.34 73.23 139.18 73.23C142.02 73.23 143.03 74.7 143.03 77.79ZM141.65 77.79C141.65 75.29 141.11 74.39 139.19 74.39C137.27 74.39 136.73 75.29 136.73 77.79C136.73 80.29 137.07 81.4 139.19 81.4C141.31 81.4 141.65 80.34 141.65 77.79Z" fill="white"/>
<path d="M145.39 73.41H146.72V74.63C146.72 74.63 148.28 73.55 150.01 73.21V74.58C148.32 74.92 146.74 75.8 146.74 75.8V82.4H145.39V73.41Z" fill="white"/>
<path d="M152.29 73.41L154.54 81.23H155.13L157.39 73.41H158.74L155 86.38H153.65L154.82 82.39H153.49L150.94 73.4H152.29V73.41Z" fill="white"/>
<path d="M102.99 63.78C102.99 63.78 97.76 64.97 93.18 64.97C82.67 64.97 80.03 57.96 80.03 45.83C80.03 32.41 83.91 27.02 93.18 27.02C97.01 27.02 103.05 28.31 103.05 28.31L102.73 34.13C102.73 34.13 97.23 33.48 94.43 33.48C89.63 33.48 87.69 36.77 87.69 45.83C87.69 54.02 89.09 58.5 94.64 58.5C97.23 58.5 102.73 57.91 102.73 57.91L103 63.79L102.99 63.78Z" fill="white"/>
<path d="M130.22 34.19C130.22 34.19 124.07 33.49 120.84 33.49C116.9 33.49 115.45 34.41 115.45 37.26C115.45 39.85 116.69 40.44 121.97 42.33C129.14 44.86 131.84 46.59 131.84 53.6C131.84 61.53 127.96 64.98 119.49 64.98C114.64 64.98 108.76 63.74 108.76 63.74L109.14 57.76C109.14 57.76 116.26 58.51 119.49 58.51C122.72 58.51 124.29 57.49 124.29 54.25C124.29 51.01 122.89 50.37 118.09 48.81C110.97 46.49 107.9 43.85 107.9 38.35C107.9 30.43 111.84 27.03 120.3 27.03C125.15 27.03 130.54 28.38 130.54 28.38L130.22 34.2V34.19Z" fill="white"/>
<path d="M134.48 27.44H158.18V33.95H150.15V64.32H142.67V33.95H134.48V27.44Z" fill="white"/>
<path d="M16.89 45.85H28.53L37.32 74.58H37.91V45.85H44.97V82.51H33.76L24.92 53.24H24.33V82.51H16.89V45.85Z" fill="white"/>
<path d="M53.5 45.85H75.28V52.32H60.94V60.95H72.26V67.42H60.94V76.05H75.28V82.52H53.5V45.86V45.85Z" fill="white"/>
</svg>
